<?xml version="1.0" encoding="utf-8"?>
<!-- Generator: Adobe Illustrator 16.0.0, SVG Export Plug-In . SVG Version: 6.00 Build 0)  -->
<!DOCTYPE svg PUBLIC "-//W3C//DTD SVG 1.1//EN" "http://www.w3.org/Graphics/SVG/1.1/DTD/svg11.dtd">
<svg version="1.1" id="Layer_1" xmlns="http://www.w3.org/2000/svg" xmlns:xlink="http://www.w3.org/1999/xlink" x="0px" y="0px"
	 width="792px" height="612px" viewBox="0 0 792 612" enable-background="new 0 0 792 612" xml:space="preserve">
<rect x="1.175" fill="#DB216C" width="791.922" height="611.651"/>
<g>
	<g>
		<polygon fill="#7AB2A9" points="1.497,129.502 115.263,235.275 178.575,174.738 209.602,204.406 297.803,120.072 323.09,144.25 
			323.09,152.752 295.536,130.906 210.298,214.408 178.923,184.408 112.511,247.908 1.836,140.084 		"/>
		<polygon fill="#DB226C" points="0.983,119.502 114.749,225.275 178.061,164.738 209.088,194.406 297.29,110.072 322.576,134.25 
			322.576,142.752 295.022,120.906 209.785,204.408 178.409,174.408 111.997,237.908 1.323,130.084 		"/>
		<g>
			<polygon fill="#A8DBD4" points="1.837,111.5 115.603,217.273 178.915,156.736 209.942,186.404 298.144,102.07 323.43,126.248 
				323.43,134.75 295.876,112.904 210.639,196.406 179.263,166.406 112.851,229.906 2.176,122.082 			"/>
			<polygon fill="#DB226C" points="1.497,101.5 115.263,207.273 178.575,146.736 209.602,176.404 297.803,92.07 323.09,116.248 
				323.09,124.75 295.536,102.904 210.298,186.406 178.923,156.406 112.511,219.906 1.836,112.082 			"/>
		</g>
		<g>
			<polygon fill="#DB226C" points="2.011,157.498 115.776,263.271 179.088,202.734 210.116,232.402 298.317,148.068 
				323.604,172.246 323.604,180.748 296.05,158.902 210.812,242.404 179.437,212.404 113.025,275.904 2.35,168.08 			"/>
			<polygon fill="#A8DBD4" points="1.497,148.494 115.263,254.27 178.575,193.732 209.602,223.398 297.803,139.066 323.09,163.242 
				323.09,171.746 295.536,149.898 210.298,233.402 178.923,203.4 112.511,266.902 1.836,159.076 			"/>
		</g>
		<polygon fill="#DB226C" points="1.497,140.496 115.263,246.271 178.575,185.734 209.602,215.4 297.803,131.068 323.09,155.244 
			323.09,163.748 295.536,141.9 210.298,225.402 178.923,195.402 112.511,258.904 1.836,151.078 		"/>
	</g>
	<g>
		<path fill="#7AB2A9" d="M791.788,229.931c-0.138-2.91-0.012-5.819,0.024-8.734l-38.867,37.162L639.18,152.585l0.34,10.582
			l110.675,107.824l41.562-39.74C791.714,230.812,791.727,230.367,791.788,229.931z"/>
		<path fill="#DB226C" d="M791.819,220.639c0-0.087,0.01-0.169,0.014-0.253c-0.032-1.665-0.014-3.333-0.014-4.997
			c0-0.262,0.02-0.511,0.054-0.75c-0.184-0.686-0.158-1.388,0.032-2.059c-0.039-0.634-0.062-1.269-0.062-1.906l-39.412,37.685
			L638.667,142.585l0.338,10.582l110.676,107.824l42.138-40.292C791.818,220.679,791.819,220.659,791.819,220.639z"/>
		<g>
			<path fill="#A8DBD4" d="M792,206.387c-0.105-0.788-0.169-1.592-0.181-2.418c0-0.037,0.01-0.072,0.01-0.109
				c-0.011-0.106-0.031-0.212-0.038-0.319l-38.505,36.816L639.521,134.583l0.339,10.582l110.675,107.824l41.213-39.405
				c0.009-0.336,0.064-0.669,0.155-0.995C791.78,210.534,791.88,208.459,792,206.387z"/>
			<path fill="#DB226C" d="M791.87,202.256c-0.064-1.172,0.021-2.356,0.036-3.533c0-0.015,0.005-0.029,0.005-0.044
				c-0.076-1.265-0.074-2.53-0.031-3.789c-0.032-0.409-0.033-0.813,0.003-1.21c-0.021-0.166-0.048-0.333-0.059-0.498l-38.879,37.175
				L639.18,124.583l0.34,10.582l110.675,107.824l41.576-39.754C791.772,202.907,791.802,202.579,791.87,202.256z"/>
		</g>
		<g>
			<path fill="#DB226C" d="M791.819,255.811c-0.072-0.458-0.055-0.924,0.003-1.386c-0.086-0.462-0.105-0.924-0.055-1.386
				c-0.013-0.351,0.007-0.702,0.067-1.049c-0.038-0.618-0.084-1.236-0.104-1.855c-0.004-0.131,0.003-0.255,0.007-0.38l-38.279,36.6
				L639.693,180.581l0.34,10.582l110.676,107.824l41.116-39.315c-0.011-0.17-0.029-0.337-0.033-0.512
				c-0.01-0.543,0.018-1.083,0.056-1.622C791.81,256.953,791.797,256.373,791.819,255.811z"/>
			<path fill="#A8DBD4" d="M791.731,250.135c-0.016-0.478,0.035-0.915,0.128-1.321c-0.149-0.759-0.134-1.463,0.024-2.098
				c-0.063-0.492-0.057-0.991,0.013-1.481c-0.026-0.366-0.05-0.732-0.077-1.099c-0.021-0.276-0.004-0.547,0.033-0.812
				c-0.168-0.782-0.154-1.564,0.065-2.347c0.01-0.022,0.021-0.044,0.03-0.066c-0.009-0.275-0.02-0.551-0.025-0.827l-38.978,37.27
				L639.18,171.577l0.34,10.582l110.675,107.826l41.544-39.724C791.737,250.22,791.732,250.177,791.731,250.135z"/>
		</g>
		<path fill="#DB226C" d="M791.906,238.473c0-0.007,0.001-0.014,0.001-0.021c0-0.181-0.001-0.361-0.001-0.542
			c-0.167-0.727-0.173-1.483-0.023-2.209c-0.025-0.341-0.029-0.682-0.038-1.021c-0.142-0.448-0.154-0.918-0.113-1.378
			c0.022-0.25,0.059-0.488,0.101-0.725c0.003-0.037,0.004-0.074,0.007-0.111c-0.012-0.089-0.026-0.179-0.031-0.27l-38.862,37.158
			L639.18,163.579l0.34,10.582l110.675,107.826l41.539-39.719c0.004-0.431,0.063-0.861,0.185-1.292
			c0.01-0.022,0.021-0.045,0.03-0.066c-0.027-0.802-0.038-1.606-0.04-2.413C791.907,238.488,791.906,238.48,791.906,238.473z"/>
	</g>
	<g>
		<polygon fill="#DB226C" points="319.706,113.091 433.472,218.864 496.784,158.328 527.811,187.995 616.012,103.662 
			641.299,127.839 641.299,136.342 613.745,114.495 528.508,197.997 497.132,167.997 430.721,231.497 320.045,123.673 		"/>
		<polygon fill="#DB226C" points="320.22,169.089 433.984,274.862 497.297,214.326 528.325,243.993 616.525,159.66 641.812,183.837 
			641.812,192.34 614.259,170.493 529.021,253.995 497.646,223.995 431.234,287.495 320.559,179.671 		"/>
		<g>
			<polygon fill="#7AB2A9" points="319.706,141.093 433.472,246.866 496.784,186.33 527.811,215.997 616.012,131.664 
				641.299,155.841 641.299,164.344 613.745,142.497 528.508,225.999 497.132,195.999 430.721,259.499 320.045,151.675 			"/>
			<polygon fill="#A8DBD4" points="320.046,123.091 433.812,228.864 497.123,168.328 528.151,197.995 616.353,113.662 
				641.639,137.839 641.639,146.342 614.085,124.495 528.848,207.997 497.473,177.997 431.061,241.497 320.385,133.673 			"/>
			<polygon fill="#A8DBD4" points="319.706,160.086 433.472,265.86 496.784,205.323 527.811,234.99 616.012,150.657 
				641.299,174.834 641.299,183.337 613.745,161.49 528.508,244.993 497.132,214.992 430.721,278.493 320.045,170.668 			"/>
			<polygon fill="#DB226C" points="319.706,152.088 433.472,257.862 496.784,197.325 527.811,226.992 616.012,142.659 
				641.299,166.836 641.299,175.339 613.745,153.492 528.508,236.993 497.132,206.994 430.721,270.495 320.045,162.67 			"/>
			<polygon fill="#DB226C" points="319.192,131.093 432.958,236.866 496.271,176.33 527.297,205.997 615.498,121.664 
				640.785,145.841 640.785,154.344 613.231,132.497 527.993,215.999 496.618,185.999 430.206,249.499 319.531,141.675 			"/>
		</g>
	</g>
</g>
<g>
	<g>
		<polygon fill="#7AB2A9" points="0.514,440.513 114.279,546.286 177.591,485.749 208.619,515.417 296.82,431.083 322.106,455.261 
			322.106,463.763 294.552,441.917 209.315,525.419 177.939,495.419 111.527,558.919 0.853,451.095 		"/>
		<polygon fill="#DB226C" points="0,430.513 113.766,536.286 177.078,475.749 208.105,505.417 296.306,421.083 321.593,445.261 
			321.593,453.763 294.039,431.917 208.801,515.419 177.426,485.419 111.014,548.919 0.339,441.095 		"/>
		<g>
			<polygon fill="#A8DBD4" points="0.854,422.511 114.62,528.284 177.932,467.747 208.959,497.415 297.16,413.081 322.447,437.259 
				322.447,445.761 294.893,423.915 209.655,507.417 178.28,477.417 111.868,540.917 1.193,433.093 			"/>
			<polygon fill="#DB226C" points="0.514,412.511 114.279,518.284 177.591,457.747 208.619,487.415 296.82,403.081 322.106,427.259 
				322.106,435.761 294.552,413.915 209.315,497.417 177.939,467.417 111.527,530.917 0.853,423.093 			"/>
		</g>
		<g>
			<polygon fill="#DB226C" points="1.028,468.509 114.793,574.282 178.105,513.745 209.133,543.413 297.333,459.079 322.62,483.257 
				322.62,491.759 295.066,469.913 209.829,553.415 178.453,523.415 112.042,586.915 1.366,479.091 			"/>
			<polygon fill="#A8DBD4" points="0.514,459.505 114.279,565.28 177.591,504.743 208.619,534.409 296.82,450.077 322.106,474.253 
				322.106,482.757 294.552,460.909 209.315,544.413 177.939,514.411 111.527,577.913 0.853,470.087 			"/>
		</g>
		<polygon fill="#DB226C" points="0.514,451.507 114.279,557.282 177.591,496.745 208.619,526.411 296.82,442.079 322.106,466.255 
			322.106,474.759 294.552,452.911 209.315,536.413 177.939,506.413 111.527,569.915 0.853,462.089 		"/>
	</g>
	<g>
		<path fill="#7AB2A9" d="M790.805,540.941c-0.138-2.91-0.012-5.819,0.024-8.734l-38.867,37.162L638.196,463.596l0.34,10.582
			l110.675,107.824l41.562-39.74C790.73,541.822,790.743,541.378,790.805,540.941z"/>
		<path fill="#DB226C" d="M790.836,531.649c0-0.087,0.01-0.169,0.014-0.253c-0.032-1.665-0.014-3.333-0.014-4.997
			c0-0.262,0.02-0.511,0.054-0.75c-0.184-0.686-0.158-1.388,0.032-2.059c-0.039-0.634-0.062-1.269-0.062-1.906l-39.412,37.685
			L637.684,453.596l0.338,10.582l110.676,107.824l42.138-40.292C790.835,531.689,790.836,531.67,790.836,531.649z"/>
		<g>
			<path fill="#A8DBD4" d="M791.017,517.397c-0.105-0.788-0.169-1.592-0.181-2.418c0-0.037,0.01-0.072,0.01-0.109
				c-0.011-0.106-0.031-0.212-0.038-0.319l-38.505,36.816L638.537,445.594l0.339,10.582L749.551,564l41.213-39.405
				c0.009-0.336,0.064-0.669,0.155-0.995C790.797,521.545,790.896,519.47,791.017,517.397z"/>
			<path fill="#DB226C" d="M790.887,513.267c-0.064-1.172,0.021-2.356,0.036-3.533c0-0.015,0.005-0.029,0.005-0.044
				c-0.076-1.265-0.074-2.53-0.031-3.789c-0.032-0.409-0.033-0.813,0.003-1.21c-0.021-0.166-0.048-0.333-0.059-0.498l-38.879,37.175
				L638.196,435.594l0.34,10.582L749.211,554l41.576-39.754C790.789,513.918,790.818,513.59,790.887,513.267z"/>
		</g>
		<g>
			<path fill="#DB226C" d="M790.836,566.821c-0.072-0.458-0.055-0.924,0.003-1.386c-0.086-0.462-0.105-0.924-0.055-1.386
				c-0.013-0.351,0.007-0.702,0.067-1.049c-0.038-0.618-0.084-1.236-0.104-1.855c-0.004-0.131,0.003-0.255,0.007-0.38l-38.279,36.6
				L638.71,491.592l0.34,10.582l110.676,107.824l41.116-39.315c-0.011-0.17-0.029-0.337-0.033-0.512
				c-0.01-0.543,0.018-1.083,0.056-1.622C790.826,567.964,790.813,567.384,790.836,566.821z"/>
			<path fill="#A8DBD4" d="M790.748,561.146c-0.016-0.478,0.035-0.915,0.128-1.321c-0.149-0.759-0.134-1.463,0.024-2.098
				c-0.063-0.492-0.057-0.991,0.013-1.481c-0.026-0.366-0.05-0.732-0.077-1.099c-0.021-0.276-0.004-0.547,0.033-0.812
				c-0.168-0.782-0.154-1.564,0.065-2.347c0.01-0.022,0.021-0.044,0.03-0.066c-0.009-0.275-0.02-0.551-0.025-0.827l-38.978,37.27
				L638.196,482.588l0.34,10.582l110.675,107.826l41.544-39.724C790.754,561.23,790.749,561.188,790.748,561.146z"/>
		</g>
		<path fill="#DB226C" d="M790.923,549.483c0-0.007,0.001-0.014,0.001-0.021c0-0.181-0.001-0.361-0.001-0.542
			c-0.167-0.727-0.173-1.483-0.023-2.209c-0.025-0.341-0.029-0.682-0.038-1.021c-0.142-0.448-0.154-0.918-0.113-1.378
			c0.022-0.25,0.059-0.488,0.101-0.725c0.003-0.037,0.004-0.074,0.007-0.111c-0.012-0.089-0.026-0.179-0.031-0.27l-38.862,37.158
			L638.196,474.59l0.34,10.582l110.675,107.826l41.539-39.719c0.004-0.431,0.063-0.861,0.185-1.292
			c0.01-0.022,0.021-0.045,0.03-0.066c-0.027-0.802-0.038-1.606-0.04-2.413C790.924,549.499,790.923,549.491,790.923,549.483z"/>
	</g>
	<g>
		<polygon fill="#DB226C" points="318.723,424.102 432.488,529.875 495.801,469.339 526.827,499.006 615.028,414.673 
			640.315,438.85 640.315,447.353 612.762,425.506 527.524,509.008 496.148,479.008 429.737,542.508 319.062,434.684 		"/>
		<polygon fill="#DB226C" points="319.236,480.1 433.001,585.873 496.313,525.337 527.342,555.004 615.542,470.671 640.829,494.848 
			640.829,503.351 613.275,481.504 528.038,565.006 496.663,535.006 430.251,598.506 319.576,490.682 		"/>
		<g>
			<polygon fill="#7AB2A9" points="318.723,452.104 432.488,557.877 495.801,497.341 526.827,527.008 615.028,442.675 
				640.315,466.852 640.315,475.354 612.762,453.508 527.524,537.01 496.148,507.01 429.737,570.51 319.062,462.686 			"/>
			<polygon fill="#A8DBD4" points="319.063,434.102 432.828,539.875 496.14,479.339 527.168,509.006 615.369,424.673 
				640.655,448.85 640.655,457.353 613.102,435.506 527.864,519.008 496.489,489.008 430.077,552.508 319.401,444.684 			"/>
			<polygon fill="#A8DBD4" points="318.723,471.097 432.488,576.871 495.801,516.334 526.827,546.001 615.028,461.668 
				640.315,485.845 640.315,494.348 612.762,472.501 527.524,556.004 496.148,526.003 429.737,589.504 319.062,481.679 			"/>
			<polygon fill="#DB226C" points="318.723,463.099 432.488,568.873 495.801,508.336 526.827,538.003 615.028,453.67 
				640.315,477.847 640.315,486.35 612.762,464.503 527.524,548.004 496.148,518.005 429.737,581.506 319.062,473.681 			"/>
			<polygon fill="#DB226C" points="318.209,442.104 431.975,547.877 495.287,487.341 526.313,517.008 614.515,432.675 
				639.802,456.852 639.802,465.354 612.248,443.508 527.01,527.01 495.635,497.01 429.223,560.51 318.548,452.686 			"/>
		</g>
	</g>
</g>
</svg>
