<?xml version="1.0" encoding="utf-8"?>
<!-- Generator: Adobe Illustrator 16.0.0, SVG Export Plug-In . SVG Version: 6.00 Build 0)  -->
<!DOCTYPE svg PUBLIC "-//W3C//DTD SVG 1.1//EN" "http://www.w3.org/Graphics/SVG/1.1/DTD/svg11.dtd">
<svg version="1.1" id="Layer_1" xmlns="http://www.w3.org/2000/svg" xmlns:xlink="http://www.w3.org/1999/xlink" x="0px" y="0px"
	 width="1240px" height="1240px" viewBox="0 0 1240 1240" enable-background="new 0 0 1240 1240" xml:space="preserve">
<linearGradient id="SVGID_1_" gradientUnits="userSpaceOnUse" x1="-3.1743" y1="621.4922" x2="1236" y2="621.4922">
	<stop  offset="0.089" style="stop-color:#DB226C;stop-opacity:0.7"/>
	<stop  offset="0.2043" style="stop-color:#DC296F;stop-opacity:0.7"/>
	<stop  offset="0.3322" style="stop-color:#DF3B78;stop-opacity:0.7"/>
	<stop  offset="0.4655" style="stop-color:#E45288;stop-opacity:0.7"/>
	<stop  offset="0.5191" style="stop-color:#E65C90;stop-opacity:0.7"/>
	<stop  offset="0.6707" style="stop-color:#E14780;stop-opacity:0.7"/>
	<stop  offset="0.8709" style="stop-color:#DD2E71;stop-opacity:0.7"/>
	<stop  offset="1" style="stop-color:#DB226C;stop-opacity:0.7"/>
</linearGradient>
<rect x="-3.174" y="-2.667" fill="url(#SVGID_1_)" width="1239.174" height="1248.318"/>
<g>
	<g>
		<polygon fill="#7AB2A9" points="1.799,197.093 178.523,357.801 276.872,265.823 325.07,310.9 462.081,182.767 501.362,219.5 
			501.362,232.418 458.56,199.227 326.151,326.096 277.413,280.516 174.248,376.995 2.326,213.171 		"/>
		<polygon fill="#DB226C" points="1.001,181.899 177.725,342.608 276.075,250.63 324.272,295.707 461.284,167.572 500.565,204.307 
			500.565,217.225 457.761,184.033 325.354,310.903 276.615,265.322 173.45,361.801 1.528,197.978 		"/>
		<g>
			<polygon fill="#A8DBD4" points="2.328,169.742 179.052,330.45 277.4,238.472 325.599,283.548 462.61,155.415 501.891,192.149 
				501.891,205.067 459.088,171.875 326.68,298.745 277.942,253.164 174.777,349.644 2.854,185.82 			"/>
			<polygon fill="#DB226C" points="1.799,154.548 178.523,315.256 276.872,223.278 325.07,268.355 462.081,140.222 501.362,176.956 
				501.362,189.874 458.56,156.682 326.151,283.552 277.413,237.971 174.248,334.45 2.326,170.626 			"/>
		</g>
		<g>
			<polygon fill="#DB226C" points="2.598,239.629 179.321,400.337 277.67,308.36 325.869,353.436 462.88,225.302 502.161,262.037 
				502.161,274.955 459.358,241.763 326.95,368.632 278.211,323.052 175.047,419.531 3.124,255.707 			"/>
			<polygon fill="#A8DBD4" points="1.799,225.949 178.523,386.66 276.872,294.682 325.07,339.756 462.081,211.625 501.362,248.356 
				501.362,261.277 458.56,228.083 326.151,354.956 277.413,309.372 174.248,405.854 2.326,242.027 			"/>
		</g>
		<polygon fill="#DB226C" points="1.799,213.797 178.523,374.508 276.872,282.531 325.07,327.604 462.081,199.473 501.362,236.205 
			501.362,249.125 458.56,215.931 326.151,342.801 277.413,297.22 174.248,393.702 2.326,229.875 		"/>
	</g>
	<g>
		<path fill="#7AB2A9" d="M1229.438,349.681c-0.213-4.421-0.018-8.842,0.039-13.271l-60.377,56.462L992.377,232.165l0.527,16.078
			l171.923,163.824l64.562-60.38C1229.324,351.019,1229.344,350.344,1229.438,349.681z"/>
		<path fill="#DB226C" d="M1229.487,335.562c0-0.132,0.017-0.257,0.021-0.384c-0.049-2.53-0.021-5.064-0.021-7.593
			c0-0.397,0.031-0.776,0.084-1.14c-0.284-1.042-0.246-2.108,0.049-3.127c-0.06-0.963-0.095-1.928-0.095-2.896l-61.223,57.257
			L991.581,216.971l0.524,16.078l171.925,163.824l65.457-61.218C1229.487,335.624,1229.487,335.594,1229.487,335.562z"/>
		<g>
			<path fill="#A8DBD4" d="M1229.77,313.909c-0.164-1.197-0.264-2.418-0.282-3.673c0-0.056,0.017-0.11,0.017-0.167
				c-0.017-0.162-0.049-0.322-0.06-0.485l-59.813,55.938L992.907,204.813l0.526,16.078l171.921,163.824l64.021-59.871
				c0.013-0.51,0.101-1.017,0.24-1.512C1229.427,320.21,1229.583,317.057,1229.77,313.909z"/>
			<path fill="#DB226C" d="M1229.566,307.633c-0.101-1.781,0.034-3.581,0.058-5.369c0-0.022,0.007-0.044,0.007-0.067
				c-0.118-1.921-0.116-3.844-0.048-5.756c-0.051-0.622-0.053-1.236,0.004-1.839c-0.034-0.252-0.074-0.505-0.091-0.756
				l-60.396,56.482L992.377,189.62l0.527,16.078l171.923,163.824l64.585-60.4C1229.415,308.622,1229.461,308.124,1229.566,307.633z"
				/>
		</g>
		<g>
			<path fill="#DB226C" d="M1229.487,389.001c-0.111-0.696-0.084-1.403,0.006-2.105c-0.134-0.702-0.165-1.403-0.085-2.105
				c-0.021-0.533,0.01-1.067,0.104-1.593c-0.06-0.939-0.131-1.878-0.162-2.819c-0.006-0.199,0.004-0.387,0.012-0.578l-59.464,55.608
				L993.175,274.701l0.528,16.077l171.924,163.824l63.87-59.734c-0.017-0.258-0.045-0.512-0.051-0.777
				c-0.017-0.825,0.026-1.646,0.086-2.465C1229.473,390.737,1229.453,389.856,1229.487,389.001z"/>
			<path fill="#A8DBD4" d="M1229.351,380.378c-0.023-0.726,0.057-1.39,0.199-2.008c-0.231-1.152-0.208-2.223,0.039-3.187
				c-0.1-0.748-0.089-1.506,0.019-2.251c-0.041-0.556-0.077-1.113-0.12-1.669c-0.031-0.42-0.006-0.831,0.053-1.234
				c-0.261-1.189-0.24-2.377,0.102-3.565c0.015-0.034,0.031-0.067,0.047-0.101c-0.014-0.418-0.03-0.836-0.039-1.256l-60.549,56.625
				l-176.724-160.71l0.527,16.078l171.923,163.826l64.535-60.354C1229.36,380.507,1229.353,380.442,1229.351,380.378z"/>
		</g>
		<path fill="#DB226C" d="M1229.624,362.659c0-0.011,0.001-0.021,0.001-0.032c0-0.274-0.001-0.548-0.001-0.823
			c-0.261-1.104-0.27-2.254-0.037-3.356c-0.039-0.518-0.046-1.036-0.061-1.552c-0.219-0.682-0.238-1.395-0.176-2.094
			c0.035-0.379,0.092-0.742,0.157-1.101c0.005-0.056,0.006-0.112,0.011-0.169c-0.019-0.135-0.041-0.271-0.049-0.409l-60.369,56.457
			L992.377,248.869l0.527,16.078l171.923,163.827l64.527-60.347c0.006-0.654,0.099-1.309,0.287-1.963
			c0.015-0.034,0.031-0.068,0.047-0.101c-0.043-1.218-0.06-2.441-0.062-3.666C1229.625,362.683,1229.624,362.671,1229.624,362.659z"
			/>
	</g>
	<g>
		<polygon fill="#DB226C" points="496.105,172.159 672.829,332.867 771.179,240.891 819.376,285.965 956.389,157.833 
			995.669,194.566 995.669,207.485 952.867,174.292 820.459,301.162 771.72,255.581 668.556,352.061 496.633,188.237 		"/>
		<polygon fill="#DB226C" points="496.904,257.24 673.626,417.948 771.976,325.972 820.176,371.047 957.187,242.914 
			996.467,279.648 996.467,292.567 953.665,259.374 821.257,386.243 772.519,340.663 669.354,437.142 497.431,273.318 		"/>
		<g>
			<polygon fill="#7AB2A9" points="496.105,214.704 672.829,375.412 771.179,283.436 819.376,328.51 956.389,200.378 
				995.669,237.112 995.669,250.031 952.867,216.838 820.459,343.707 771.72,298.126 668.556,394.605 496.633,230.782 			"/>
			<polygon fill="#A8DBD4" points="496.634,187.353 673.358,348.06 771.706,256.084 819.905,301.159 956.918,173.027 
				996.196,209.76 996.196,222.679 953.396,189.486 820.986,316.355 772.249,270.775 669.084,367.254 497.161,203.431 			"/>
			<polygon fill="#A8DBD4" points="496.105,243.561 672.829,404.271 771.179,312.293 819.376,357.368 956.389,229.236 
				995.669,265.969 995.669,278.888 952.867,245.695 820.459,372.566 771.72,326.983 668.556,423.464 496.633,259.639 			"/>
			<polygon fill="#DB226C" points="496.105,231.41 672.829,392.119 771.179,300.141 819.376,345.216 956.389,217.084 
				995.669,253.817 995.669,266.736 952.867,233.543 820.459,360.411 771.72,314.832 668.556,411.312 496.633,247.488 			"/>
			<polygon fill="#DB226C" points="495.308,199.51 672.031,360.218 770.382,268.242 818.578,313.317 955.59,185.185 
				994.871,221.917 994.871,234.837 952.068,201.644 819.659,328.513 770.921,282.933 667.757,379.412 495.834,215.588 			"/>
		</g>
	</g>
</g>
<g>
	<g>
		<polygon fill="#7AB2A9" points="12.031,937.63 188.754,1098.339 287.104,1006.36 335.301,1051.438 472.313,923.304 
			511.594,960.038 511.594,972.956 468.791,939.764 336.383,1066.634 287.644,1021.053 184.479,1117.532 12.557,953.708 		"/>
		<polygon fill="#DB226C" points="11.232,922.437 187.956,1083.145 286.305,991.167 334.503,1036.243 471.515,908.109 
			510.796,944.844 510.796,957.762 467.993,924.57 335.585,1051.439 286.846,1005.858 183.682,1102.338 11.76,938.515 		"/>
		<g>
			<polygon fill="#A8DBD4" points="12.56,910.279 189.283,1070.987 287.632,979.009 335.83,1024.086 472.842,895.951 
				512.123,932.687 512.123,945.604 469.319,912.413 336.912,1039.282 288.173,993.701 185.008,1090.181 13.085,926.357 			"/>
			<polygon fill="#DB226C" points="12.031,895.085 188.754,1055.793 287.104,963.815 335.301,1008.892 472.313,880.759 
				511.594,917.492 511.594,930.41 468.791,897.219 336.383,1024.088 287.644,978.508 184.479,1074.986 12.557,911.163 			"/>
		</g>
		<g>
			<polygon fill="#DB226C" points="12.83,980.167 189.552,1140.874 287.901,1048.897 336.1,1093.973 473.112,965.839 
				512.391,1002.573 512.391,1015.491 469.589,982.3 337.182,1109.169 288.442,1063.588 185.278,1160.068 13.354,996.244 			"/>
			<polygon fill="#A8DBD4" points="12.031,966.486 188.754,1127.197 287.104,1035.219 335.301,1080.293 472.313,952.162 
				511.594,988.894 511.594,1001.814 468.791,968.62 336.383,1095.492 287.644,1049.908 184.479,1146.391 12.557,982.564 			"/>
		</g>
		<polygon fill="#DB226C" points="12.031,954.334 188.754,1115.045 287.104,1023.068 335.301,1068.141 472.313,940.01 
			511.594,976.742 511.594,989.662 468.791,956.468 336.383,1083.338 287.644,1037.757 184.479,1134.239 12.557,970.412 		"/>
	</g>
	<g>
		<path fill="#7AB2A9" d="M1239.67,1090.217c-0.213-4.42-0.018-8.841,0.039-13.27l-60.377,56.462l-176.724-160.708l0.528,16.078
			l171.922,163.824l64.562-60.38C1239.555,1091.557,1239.574,1090.881,1239.67,1090.217z"/>
		<path fill="#DB226C" d="M1239.719,1076.1c0-0.132,0.016-0.257,0.022-0.385c-0.051-2.529-0.022-5.063-0.022-7.592
			c0-0.397,0.031-0.775,0.084-1.14c-0.285-1.042-0.246-2.108,0.05-3.128c-0.061-0.962-0.095-1.927-0.095-2.896l-61.225,57.257
			l-176.721-160.709l0.523,16.078l171.925,163.823l65.457-61.218C1239.718,1076.16,1239.719,1076.131,1239.719,1076.1z"/>
		<g>
			<path fill="#A8DBD4" d="M1240,1054.446c-0.164-1.198-0.263-2.419-0.281-3.674c0-0.057,0.016-0.109,0.016-0.166
				c-0.017-0.162-0.049-0.323-0.06-0.485l-59.813,55.937L1003.138,945.35l0.526,16.078l171.922,163.824l64.021-59.87
				c0.014-0.511,0.1-1.017,0.24-1.513C1239.658,1060.747,1239.812,1057.594,1240,1054.446z"/>
			<path fill="#DB226C" d="M1239.798,1048.17c-0.1-1.781,0.033-3.581,0.057-5.369c0-0.021,0.007-0.044,0.007-0.066
				c-0.117-1.921-0.115-3.844-0.049-5.756c-0.05-0.623-0.051-1.237,0.006-1.839c-0.033-0.252-0.074-0.506-0.092-0.757
				l-60.395,56.482l-176.724-160.709l0.528,16.079l171.922,163.823l64.584-60.401
				C1239.647,1049.159,1239.692,1048.66,1239.798,1048.17z"/>
		</g>
		<g>
			<path fill="#DB226C" d="M1239.719,1129.539c-0.111-0.696-0.085-1.404,0.005-2.106c-0.134-0.702-0.163-1.403-0.085-2.104
				c-0.021-0.533,0.011-1.067,0.105-1.594c-0.061-0.939-0.131-1.878-0.162-2.819c-0.005-0.199,0.005-0.387,0.01-0.577
				l-59.462,55.608l-176.724-160.709l0.527,16.078l171.925,163.824l63.869-59.735c-0.017-0.257-0.045-0.511-0.052-0.776
				c-0.014-0.825,0.028-1.646,0.087-2.465C1239.704,1131.274,1239.684,1130.393,1239.719,1129.539z"/>
			<path fill="#A8DBD4" d="M1239.582,1120.915c-0.023-0.726,0.056-1.391,0.199-2.008c-0.231-1.152-0.208-2.223,0.039-3.187
				c-0.101-0.748-0.088-1.507,0.019-2.251c-0.041-0.557-0.077-1.113-0.12-1.67c-0.031-0.42-0.005-0.831,0.052-1.234
				c-0.261-1.188-0.239-2.376,0.103-3.565c0.015-0.034,0.031-0.066,0.047-0.101c-0.015-0.419-0.031-0.837-0.04-1.257l-60.548,56.625
				l-176.724-160.711l0.528,16.078l171.922,163.827l64.533-60.354C1239.591,1121.044,1239.583,1120.979,1239.582,1120.915z"/>
		</g>
		<path fill="#DB226C" d="M1239.854,1103.195c0-0.01,0.001-0.021,0.001-0.03c0-0.275-0.001-0.55-0.001-0.823
			c-0.259-1.104-0.269-2.254-0.036-3.356c-0.041-0.519-0.047-1.036-0.06-1.553c-0.221-0.681-0.239-1.395-0.177-2.093
			c0.035-0.38,0.092-0.742,0.158-1.102c0.004-0.057,0.005-0.113,0.01-0.169c-0.018-0.135-0.041-0.271-0.049-0.409l-60.369,56.457
			l-176.724-160.711l0.528,16.078l171.922,163.826l64.527-60.347c0.005-0.654,0.098-1.31,0.287-1.964
			c0.015-0.034,0.031-0.068,0.047-0.101c-0.042-1.219-0.06-2.44-0.063-3.666C1239.855,1103.22,1239.854,1103.208,1239.854,1103.195z
			"/>
	</g>
	<g>
		<polygon fill="#DB226C" points="506.337,912.696 683.061,1073.403 781.411,981.428 829.607,1026.502 966.618,898.37 
			1005.9,935.104 1005.9,948.022 963.099,914.829 830.69,1041.699 781.951,996.118 678.787,1092.598 506.865,928.773 		"/>
		<polygon fill="#DB226C" points="507.135,997.777 683.857,1158.484 782.207,1066.509 830.407,1111.583 967.417,983.451 
			1006.698,1020.185 1006.698,1033.104 963.896,999.911 831.488,1126.779 782.751,1081.199 679.586,1177.679 507.662,1013.855 		"/>
		<g>
			<polygon fill="#7AB2A9" points="506.337,955.24 683.061,1115.949 781.411,1023.973 829.607,1069.048 966.618,940.915 
				1005.9,977.648 1005.9,990.567 963.099,957.375 830.69,1084.244 781.951,1038.663 678.787,1135.143 506.865,971.319 			"/>
			<polygon fill="#A8DBD4" points="506.866,927.89 683.589,1088.598 781.938,996.621 830.137,1041.696 967.148,913.564 
				1006.429,950.297 1006.429,963.216 963.626,930.023 831.219,1056.893 782.479,1011.312 679.316,1107.791 507.391,943.968 			"/>
			<polygon fill="#A8DBD4" points="506.337,984.098 683.061,1144.808 781.411,1052.83 829.607,1097.905 966.618,969.772 
				1005.9,1006.506 1005.9,1019.425 963.099,986.231 830.69,1113.103 781.951,1067.521 678.787,1164.002 506.865,1000.176 			"/>
			<polygon fill="#DB226C" points="506.337,971.947 683.061,1132.655 781.411,1040.679 829.607,1085.753 966.618,957.62 
				1005.9,994.354 1005.9,1007.273 963.099,974.079 830.69,1100.948 781.951,1055.369 678.787,1151.85 506.865,988.023 			"/>
			<polygon fill="#DB226C" points="505.54,940.048 682.264,1100.755 780.612,1008.779 828.81,1053.854 965.82,925.722 
				1005.102,962.454 1005.102,975.373 962.301,942.181 829.891,1069.05 781.153,1023.471 677.988,1119.949 506.066,956.125 			"/>
		</g>
	</g>
</g>
</svg>
